<svg width="160" height="37" viewBox="0 0 160 37" fill="none" xmlns="http://www.w3.org/2000/svg">
<g id="8">
<g id="8_2">
<g id="Group">
<path id="Vector" d="M34.6182 22.7435V0H48.1484V22.7324H34.6182V22.7435ZM46.509 17.4523L46.8571 14.94L45.5995 14.8177L45.2178 16.7519C44.4318 17.141 43.4661 17.33 42.3096 17.33C40.7376 17.33 39.4913 16.8409 38.5818 15.8515C37.6611 14.8622 37.2119 13.5616 37.2119 11.9387C37.2119 10.3602 37.6611 9.05962 38.5481 8.03693C39.4351 7.01425 40.6029 6.50291 42.0514 6.50291C42.7924 6.50291 43.4212 6.59184 43.9265 6.75858C44.4318 6.92532 44.8921 7.14765 45.33 7.43666L45.7006 9.34863L46.9806 9.22636L46.6101 6.71412C46.0711 6.25836 45.4311 5.89153 44.69 5.60251C43.9489 5.32461 43.0282 5.1801 41.9391 5.1801C40.6478 5.1801 39.5362 5.49135 38.6043 6.12497C37.6723 6.75858 36.9425 7.59229 36.426 8.62609C35.9094 9.671 35.6512 10.7937 35.6512 11.9943C35.6512 13.8951 36.2463 15.4847 37.4365 16.7519C38.6267 18.0192 40.1762 18.6528 42.0963 18.6528C43.9826 18.6528 45.4536 18.2526 46.509 17.4523Z" fill="#263238"/>
<path id="Vector_2" d="M52.7412 22.7435V0H58.5575V22.7324H52.7412V22.7435ZM53.3588 18.4527H57.9512V17.3078H56.368V4.61318H53.3363V5.75813H54.942V17.3078H53.3588V18.4527Z" fill="#263238"/>
<path id="Vector_3" d="M63.1494 22.7435V0H73.3672V22.7324H63.1494V22.7435ZM65.0021 10.1823L64.6765 12.2499L65.8555 12.3944L66.2035 10.8493C66.7088 10.6047 67.2815 10.4825 67.9552 10.4825C68.7636 10.4825 69.3138 10.6826 69.5945 11.0827C69.8752 11.4829 70.01 12.0054 70.01 12.6501V13.4505C69.7629 13.4282 69.5047 13.406 69.224 13.3949C68.9433 13.3838 68.6738 13.3727 68.4043 13.3727C67.3938 13.3727 66.4281 13.5505 65.5298 13.9062C64.6316 14.2619 64.1824 15.0067 64.1824 16.1294C64.1824 17.0854 64.4856 17.7413 65.1032 18.097C65.7207 18.4638 66.3271 18.6417 66.9222 18.6417C67.652 18.6417 68.2808 18.4527 68.7973 18.0748C69.3138 17.6968 69.718 17.2744 70.01 16.7853V16.8298C70.0324 18.0414 70.5826 18.6417 71.6605 18.6417C72.076 18.6417 72.469 18.5416 72.8395 18.3416L72.8171 17.4189C72.6374 17.4967 72.4353 17.5412 72.2107 17.5412C71.6942 17.5412 71.436 17.2188 71.436 16.5741V12.3166C71.436 10.3157 70.358 9.31528 68.2022 9.31528C67.6071 9.31528 67.0457 9.38198 66.5179 9.51537C65.979 9.65988 65.4737 9.8822 65.0021 10.1823ZM69.9987 15.0956C69.9426 15.8293 69.6394 16.4185 69.0892 16.8409C68.539 17.2744 67.9552 17.4856 67.3264 17.4856C66.9334 17.4856 66.5516 17.3744 66.1923 17.1632C65.8218 16.952 65.6421 16.5519 65.6421 15.9738C65.6421 15.2735 65.9228 14.8289 66.4618 14.6177C67.012 14.4065 67.6183 14.3064 68.3032 14.3064C68.6064 14.3064 68.8983 14.3175 69.179 14.3509C69.4598 14.3731 69.7405 14.3953 69.9875 14.4065V15.0956H69.9987Z" fill="#263238"/>
<path id="Vector_4" d="M77.9717 22.7435V0H87.2575V22.7324H77.9717V22.7435ZM86.2807 15.8627C86.2807 15.1512 86.0898 14.6288 85.708 14.2842C85.3262 13.9396 84.8659 13.7061 84.3045 13.5727C83.743 13.4394 83.1929 13.3282 82.6427 13.2393C82.0925 13.1503 81.6209 13.0058 81.2391 12.8169C80.8574 12.6279 80.6665 12.2944 80.6665 11.8164C80.6665 11.3606 80.8461 11.0272 81.2167 10.8048C81.5872 10.5825 82.0476 10.4825 82.6202 10.4825C83.2827 10.4825 83.9003 10.627 84.4729 10.9271L84.6975 12.3722L85.8765 12.2277L85.6519 10.1379C85.2701 9.90444 84.8098 9.71546 84.2596 9.55984C83.7094 9.40421 83.1255 9.31528 82.4967 9.31528C81.6658 9.31528 80.9023 9.51537 80.1949 9.90444C79.4875 10.2935 79.1394 10.9605 79.1394 11.9164C79.1394 12.6168 79.3303 13.1281 79.7121 13.4505C80.0938 13.784 80.5654 14.0063 81.1381 14.1397C81.7107 14.2731 82.2721 14.3842 82.8336 14.4843C83.395 14.5732 83.8666 14.7288 84.2483 14.9289C84.6301 15.129 84.821 15.4736 84.821 15.9738C84.821 16.4852 84.5739 16.8631 84.0799 17.1077C83.5858 17.3522 83.0244 17.4745 82.3844 17.4745C81.6658 17.4745 80.9921 17.33 80.3745 17.0299L80.4307 15.8404L79.2966 15.7182L79.0159 17.7524C79.4089 18.0081 79.9254 18.2193 80.5542 18.386C81.183 18.5528 81.8118 18.6417 82.4518 18.6417C83.5409 18.6417 84.4505 18.3971 85.1803 17.8969C85.9102 17.4189 86.2807 16.7297 86.2807 15.8627Z" fill="#263238"/>
<path id="Vector_5" d="M91.8486 22.7435V0H101.134V22.7324H91.8486V22.7435ZM100.158 15.8627C100.158 15.1512 99.9667 14.6288 99.5849 14.2842C99.2032 13.9396 98.7428 13.7061 98.1814 13.5727C97.62 13.4394 97.0698 13.3282 96.5196 13.2393C95.9694 13.1503 95.4978 13.0058 95.1161 12.8169C94.7343 12.6279 94.5434 12.2944 94.5434 11.8164C94.5434 11.3606 94.723 11.0272 95.0936 10.8048C95.4641 10.5825 95.9245 10.4825 96.4971 10.4825C97.1596 10.4825 97.7772 10.627 98.3498 10.9271L98.5744 12.3722L99.7534 12.2277L99.5288 10.1379C99.147 9.90444 98.6867 9.71546 98.1365 9.55984C97.5863 9.40421 97.0024 9.31528 96.3736 9.31528C95.5427 9.31528 94.7792 9.51537 94.0718 9.90444C93.3644 10.2935 93.0164 10.9605 93.0164 11.9164C93.0164 12.6168 93.2073 13.1281 93.589 13.4505C93.9708 13.784 94.4424 14.0063 95.015 14.1397C95.5877 14.2731 96.1491 14.3842 96.7105 14.4843C97.2719 14.5732 97.7435 14.7288 98.1253 14.9289C98.507 15.129 98.6979 15.4736 98.6979 15.9738C98.6979 16.4852 98.4509 16.8631 97.9569 17.1077C97.4628 17.3522 96.9014 17.4745 96.2614 17.4745C95.5428 17.4745 94.869 17.33 94.2515 17.0299L94.3076 15.8404L93.1736 15.7182L92.8929 17.7524C93.2859 18.0081 93.8024 18.2193 94.4311 18.386C95.0599 18.5528 95.6887 18.6417 96.3287 18.6417C97.4179 18.6417 98.3274 18.3971 99.0572 17.8969C99.7871 17.4189 100.158 16.7297 100.158 15.8627Z" fill="#263238"/>
<path id="Vector_6" d="M105.728 22.7435V0H111.847V22.7324H105.728V22.7435ZM106.626 18.4527H111.218V17.3078H109.635V9.50426H106.592V10.6492H108.22V17.3078H106.637V18.4527H106.626ZM108.063 5.35796V7.19211H109.613V5.35796H108.063Z" fill="#263238"/>
<path id="Vector_7" d="M116.438 22.7435V0H126.218V22.7324H116.438V22.7435ZM125.343 15.4403L124.119 15.1735C123.849 16.6853 123.03 17.4411 121.682 17.4411C120.784 17.4411 120.099 17.141 119.627 16.5407C119.156 15.9405 118.92 15.0957 118.92 14.0285C118.92 13.0614 119.133 12.2388 119.549 11.5496C119.964 10.8604 120.66 10.5269 121.626 10.5269C122.367 10.5269 123.018 10.6937 123.557 11.0272L123.905 12.5389L125.084 12.3944L124.736 10.2379C124.276 9.89332 123.793 9.64877 123.288 9.51537C122.783 9.38198 122.232 9.31528 121.637 9.31528C120.234 9.31528 119.167 9.80439 118.471 10.7826C117.763 11.7608 117.415 12.8724 117.415 14.1063C117.415 15.5403 117.786 16.663 118.538 17.4523C119.279 18.2526 120.279 18.6528 121.525 18.6528C122.771 18.6528 123.692 18.3082 124.276 17.6301C124.86 16.9409 125.219 16.2184 125.343 15.4403Z" fill="#263238"/>
</g>
<g id="Group_2">
<path id="Vector_8" d="M40.4688 35.1602C40.2106 35.627 39.8288 35.9939 39.3348 36.2496C38.8295 36.5052 38.2344 36.6386 37.5382 36.6386H35.5283V30.3691H37.5382C38.2344 30.3691 38.8407 30.4914 39.3348 30.7471C39.8288 31.0028 40.2106 31.3585 40.4688 31.8365C40.7271 32.3145 40.8506 32.8591 40.8506 33.5039C40.8506 34.1375 40.7271 34.6933 40.4688 35.1602ZM39.3572 35.2825C39.7951 34.86 40.0085 34.2709 40.0085 33.5039C40.0085 32.7369 39.7951 32.1477 39.3572 31.7253C38.9193 31.3029 38.2905 31.0917 37.4596 31.0917H36.3256V35.9161H37.4596C38.2905 35.9161 38.9193 35.7049 39.3572 35.2825Z" fill="#FF5196"/>
<path id="Vector_9" d="M45.016 31.025V33.1704H47.4189V33.7929H45.016V35.9828H47.6883V36.6386H44.1963V30.3691H47.6883V31.025H45.016Z" fill="#FF5196"/>
<path id="Vector_10" d="M54.7854 35.8383C54.6394 36.094 54.4261 36.3052 54.1341 36.4608C53.8422 36.6164 53.4829 36.7054 53.045 36.7054C52.6295 36.7054 52.2478 36.6275 51.9221 36.483C51.5965 36.3274 51.3383 36.1273 51.1362 35.8605C50.9453 35.5937 50.833 35.2936 50.7993 34.9601H51.6751C51.6976 35.138 51.7537 35.3158 51.8548 35.4826C51.9558 35.6493 52.113 35.7938 52.3039 35.905C52.4948 36.0162 52.7306 36.0717 53.0113 36.0717C53.3706 36.0717 53.6513 35.9828 53.8422 35.7827C54.0331 35.5826 54.1341 35.3492 54.1341 35.0491C54.1341 34.7934 54.0668 34.5822 53.932 34.4266C53.7973 34.2709 53.6288 34.1375 53.438 34.0486C53.2471 33.9597 52.9664 33.8596 52.6295 33.7485C52.2253 33.6151 51.9109 33.4928 51.6639 33.3816C51.4169 33.2705 51.2147 33.0926 51.0463 32.8592C50.8779 32.6258 50.7881 32.3256 50.7881 31.9477C50.7881 31.6253 50.8667 31.3363 51.0239 31.0806C51.1811 30.8361 51.4056 30.636 51.7088 30.5026C52.0007 30.3692 52.3601 30.3025 52.7531 30.3025C53.3706 30.3025 53.8759 30.447 54.2352 30.7471C54.6057 31.0473 54.8078 31.4252 54.8752 31.8921H53.9994C53.9545 31.6475 53.8197 31.4252 53.6176 31.2362C53.4043 31.0473 53.1236 30.9472 52.7643 30.9472C52.4386 30.9472 52.1692 31.0362 51.9783 31.2029C51.7762 31.3696 51.6863 31.6142 51.6863 31.9143C51.6863 32.1589 51.7537 32.359 51.8772 32.5035C52.012 32.6591 52.1692 32.7703 52.3601 32.8592C52.5509 32.9481 52.8204 33.0371 53.146 33.1482C53.5502 33.2816 53.8759 33.4039 54.1341 33.5262C54.3811 33.6484 54.5945 33.8263 54.7629 34.0597C54.9313 34.2932 55.0212 34.6155 55.0212 35.0157C54.9987 35.3047 54.9314 35.5826 54.7854 35.8383Z" fill="#FF5196"/>
<path id="Vector_11" d="M59.1644 30.3691V36.6386H58.3447V30.3691H59.1644Z" fill="#FF5196"/>
<path id="Vector_12" d="M67.4498 30.8472C67.9551 31.214 68.2919 31.7031 68.4603 32.3256H67.5958C67.4498 31.9477 67.1915 31.6364 66.8434 31.4141C66.4954 31.1807 66.0799 31.0695 65.5971 31.0695C65.1704 31.0695 64.7774 31.1695 64.4406 31.3696C64.1037 31.5697 63.8343 31.8476 63.6321 32.2145C63.4413 32.5813 63.3402 33.0148 63.3402 33.515C63.3402 34.0264 63.4413 34.471 63.6321 34.8379C63.823 35.2047 64.1037 35.4937 64.4518 35.6938C64.7999 35.8939 65.2041 35.9939 65.6645 35.9939C66.0575 35.9939 66.4055 35.905 66.7311 35.7494C67.0568 35.5826 67.315 35.3381 67.5284 35.0268C67.7417 34.7156 67.854 34.3376 67.8989 33.9152H65.4062V33.315H68.5838V34.0597C68.5277 34.56 68.3705 35.0046 68.1123 35.4159C67.854 35.8272 67.5059 36.1384 67.068 36.3719C66.6301 36.6053 66.136 36.7276 65.5746 36.7276C64.9683 36.7276 64.4293 36.5942 63.9577 36.3274C63.4861 36.0606 63.1268 35.6827 62.8686 35.1936C62.6103 34.7156 62.4756 34.1598 62.4756 33.5373C62.4756 32.9148 62.6103 32.359 62.8686 31.881C63.1268 31.403 63.4974 31.0139 63.9577 30.7471C64.4181 30.4804 64.9571 30.3358 65.5634 30.3358C66.3269 30.3136 66.9445 30.4915 67.4498 30.8472Z" fill="#FF5196"/>
<path id="Vector_13" d="M76.8716 36.6386H76.052L72.762 31.6808V36.6386H71.9424V30.3691H72.762L76.052 35.3269V30.3691H76.8716V36.6386Z" fill="#FF5196"/>
<path id="Vector_14" d="M88.6838 35.8385C88.5379 36.0942 88.3245 36.3054 88.0326 36.4611C87.7406 36.6167 87.3813 36.7056 86.9434 36.7056C86.528 36.7056 86.1462 36.6278 85.8206 36.4833C85.495 36.3277 85.2367 36.1276 85.0346 35.8608C84.8437 35.594 84.7314 35.2939 84.6978 34.9604H85.5735C85.596 35.1382 85.6522 35.3161 85.7532 35.4828C85.8543 35.6496 86.0114 35.7941 86.2023 35.9052C86.3932 36.0164 86.629 36.072 86.9097 36.072C87.269 36.072 87.5497 35.9831 87.7406 35.783C87.9315 35.5829 88.0326 35.3494 88.0326 35.0493C88.0326 34.7936 87.9652 34.5824 87.8305 34.4268C87.6957 34.2712 87.5273 34.1378 87.3364 34.0489C87.1455 33.9599 86.8648 33.8599 86.528 33.7487C86.1238 33.6153 85.8093 33.4931 85.5623 33.3819C85.3153 33.2707 85.1132 33.0929 84.9448 32.8594C84.7763 32.626 84.6865 32.3259 84.6865 31.9479C84.6865 31.6255 84.7651 31.3365 84.9223 31.0809C85.0795 30.8363 85.3041 30.6362 85.6073 30.5028C85.8992 30.3694 86.2585 30.3027 86.6515 30.3027C87.269 30.3027 87.7743 30.4472 88.1336 30.7474C88.5042 31.0475 88.7063 31.4255 88.7737 31.8923H87.8978C87.8529 31.6478 87.7181 31.4255 87.516 31.2365C87.3027 31.0475 87.022 30.9475 86.6627 30.9475C86.3371 30.9475 86.0676 31.0364 85.8767 31.2031C85.6746 31.3699 85.5848 31.6144 85.5848 31.9146C85.5848 32.1591 85.6521 32.3592 85.7756 32.5037C85.9104 32.6593 86.0676 32.7705 86.2585 32.8594C86.4493 32.9484 86.7188 33.0373 87.0445 33.1485C87.4487 33.2818 87.7743 33.4041 88.0326 33.5264C88.2796 33.6487 88.4929 33.8265 88.6613 34.06C88.8298 34.2934 88.9196 34.6158 88.9196 35.016C88.8971 35.305 88.8298 35.5829 88.6838 35.8385Z" fill="#FF5196"/>
<path id="Vector_15" d="M96.1272 30.3691V31.025H94.3418V36.6386H93.5109V31.025H91.7256V30.3691H96.1272Z" fill="#FF5196"/>
<path id="Vector_16" d="M99.9466 30.3691V34.1264C99.9466 34.7378 100.081 35.1935 100.362 35.4937C100.643 35.7827 101.013 35.9383 101.507 35.9383C101.99 35.9383 102.361 35.7938 102.63 35.4937C102.9 35.1935 103.034 34.7489 103.034 34.1375V30.3803H103.854V34.1375C103.854 34.9934 103.641 35.6382 103.214 36.0606C102.787 36.4941 102.215 36.7053 101.496 36.7053C100.789 36.7053 100.216 36.4941 99.7894 36.0606C99.3628 35.6271 99.1494 34.9934 99.1494 34.1375V30.3803H99.9466V30.3691Z" fill="#FF5196"/>
<path id="Vector_17" d="M112.309 35.1602C112.05 35.627 111.669 35.9939 111.175 36.2496C110.669 36.5052 110.074 36.6386 109.378 36.6386H107.368V30.3691H109.378C110.074 30.3691 110.68 30.4914 111.175 30.7471C111.669 31.0028 112.05 31.3585 112.309 31.8365C112.567 32.3145 112.69 32.8591 112.69 33.5039C112.69 34.1375 112.567 34.6933 112.309 35.1602ZM111.208 35.2825C111.646 34.86 111.86 34.2709 111.86 33.5039C111.86 32.7369 111.646 32.1477 111.208 31.7253C110.77 31.3029 110.142 31.0917 109.311 31.0917H108.177V35.9161H109.311C110.13 35.9161 110.77 35.7049 111.208 35.2825Z" fill="#FF5196"/>
<path id="Vector_18" d="M116.866 30.3691V36.6386H116.046V30.3691H116.866Z" fill="#FF5196"/>
<path id="Vector_19" d="M124.907 30.7028C125.378 30.9807 125.749 31.3586 126.018 31.8478C126.288 32.3369 126.423 32.8927 126.423 33.5041C126.423 34.1154 126.288 34.6712 126.018 35.1603C125.749 35.6495 125.378 36.0274 124.907 36.3053C124.435 36.5832 123.907 36.7166 123.324 36.7166C122.74 36.7166 122.201 36.5832 121.729 36.3053C121.258 36.0274 120.876 35.6495 120.606 35.1603C120.337 34.6712 120.202 34.1154 120.202 33.5041C120.202 32.8927 120.337 32.3369 120.606 31.8478C120.876 31.3586 121.246 30.9807 121.729 30.7028C122.212 30.4249 122.74 30.2915 123.324 30.2915C123.907 30.2915 124.435 30.4249 124.907 30.7028ZM122.145 31.3475C121.797 31.5476 121.527 31.8255 121.336 32.2035C121.145 32.5703 121.044 33.0038 121.044 33.5041C121.044 33.9932 121.145 34.4267 121.336 34.8046C121.527 35.1826 121.797 35.4605 122.145 35.6606C122.493 35.8607 122.874 35.9607 123.312 35.9607C123.739 35.9607 124.132 35.8607 124.48 35.6606C124.828 35.4605 125.098 35.1715 125.289 34.8046C125.479 34.4378 125.581 34.0043 125.581 33.5152C125.581 33.0149 125.479 32.5814 125.289 32.2146C125.098 31.8478 124.828 31.5587 124.48 31.3586C124.132 31.1586 123.75 31.0585 123.312 31.0585C122.886 31.0474 122.493 31.1474 122.145 31.3475Z" fill="#FF5196"/>
</g>
</g>
</g>
</svg>
