<svg width="160" height="34" viewBox="0 0 160 34" fill="none" xmlns="http://www.w3.org/2000/svg">
<g id="4">
<g id="4_2">
<g id="Group">
<path id="Vector" d="M43.4897 33.8112H22.3944C18.9277 33.8112 16.1182 31.0298 16.1182 27.5978V6.71345C16.1182 3.28144 18.9277 0.5 22.3944 0.5H43.4897C46.9563 0.5 49.7659 3.28144 49.7659 6.71345V27.5978C49.7659 31.0298 46.9563 33.8112 43.4897 33.8112Z" fill="#7782FF"/>
</g>
<g id="Group_2">
<path id="Vector_2" d="M39.0046 17.4621C39.6046 18.207 39.9093 19.0744 39.9093 20.055C39.9093 21.4975 39.4236 22.629 38.4522 23.4304C37.4808 24.2318 36.0903 24.6467 34.2807 24.6467H26.376V7.81665H34.0903C35.8236 7.81665 37.1569 8.1938 38.0998 8.93866C39.0427 9.68351 39.5189 10.7489 39.5189 12.1255C39.5189 13.1438 39.2427 13.983 38.6998 14.6618C38.157 15.3407 37.4427 15.7744 36.557 15.9818C37.5951 16.227 38.4046 16.7172 39.0046 17.4621ZM30.4807 14.6995H33.176C34.6046 14.6995 35.3188 14.0961 35.3188 12.8892C35.3188 11.6824 34.5855 11.0789 33.1284 11.0789H30.4807V14.6995ZM35.6998 19.4893C35.6998 18.8858 35.4998 18.4144 35.0998 18.075C34.6998 17.7355 34.1284 17.5658 33.395 17.5658H30.4903V21.3467H33.4236C34.9379 21.3373 35.6998 20.7244 35.6998 19.4893Z" fill="white"/>
</g>
<g id="Group_3">
<path id="Vector_3" d="M69.2619 24.6467L65.5857 18.2918H64.6524V24.6467H60.5381V7.81665H67.5571C68.9 7.81665 70.0429 8.04294 70.9667 8.50494C71.9 8.96694 72.5952 9.59865 73.0619 10.4001C73.5286 11.2015 73.7572 12.1161 73.7572 13.1532C73.7572 14.379 73.4143 15.4161 72.7381 16.2741C72.0524 17.1321 71.0714 17.7167 69.7667 18.0372L73.8048 24.6561H69.2619V24.6467ZM64.6524 15.5104H67.1952C68.0143 15.5104 68.6143 15.3312 68.9953 14.973C69.3762 14.6147 69.5762 14.0867 69.5762 13.389C69.5762 12.7195 69.3762 12.2009 68.9857 11.8144C68.5952 11.4372 67.9952 11.2392 67.1952 11.2392H64.6524V15.5104Z" fill="#263238"/>
<path id="Vector_4" d="M92.3667 21.5825H85.9952L84.9381 24.6562H80.6143L86.8429 7.94873H91.5762L97.8048 24.6562H93.4334L92.3667 21.5825ZM91.3095 18.4805L89.1952 12.2953L87.0524 18.4805H91.3095Z" fill="#263238"/>
<path id="Vector_5" d="M120.5 24.6467H116.386L109.51 14.3129V24.6467H105.396V7.81665H109.51L116.386 18.2447V7.81665H120.5V24.6467Z" fill="#263238"/>
<path id="Vector_6" d="M143.568 20.5925C142.853 21.8653 141.825 22.8648 140.492 23.5813C139.149 24.2979 137.577 24.6562 135.768 24.6562H129.349V7.82617H135.768C137.596 7.82617 139.177 8.17503 140.501 8.87275C141.834 9.57046 142.853 10.551 143.568 11.8239C144.282 13.0968 144.634 14.5488 144.634 16.2082C144.634 17.8488 144.272 19.3102 143.568 20.5925ZM139.139 19.7439C140.025 18.9048 140.472 17.7168 140.472 16.1988C140.472 14.6713 140.025 13.4928 139.139 12.6536C138.253 11.8145 137.006 11.3902 135.396 11.3902H133.453V21.0073H135.396C137.006 21.0073 138.253 20.5925 139.139 19.7439Z" fill="#263238"/>
</g>
</g>
</g>
</svg>
