<svg width="64" height="64" viewBox="0 0 64 64" fill="none" xmlns="http://www.w3.org/2000/svg">
<g id="ICon">
<circle id="Background" cx="41.8848" cy="41.8843" r="21.5" fill="#B1E8F2"/>
<path id="Vector" d="M27.3848 39.7593C34.2193 39.7593 39.7598 34.2188 39.7598 27.3843C39.7598 20.5498 34.2193 15.0093 27.3848 15.0093C20.5502 15.0093 15.0098 20.5498 15.0098 27.3843C15.0098 34.2188 20.5502 39.7593 27.3848 39.7593Z" stroke="#393939" stroke-width="3" stroke-linecap="round" stroke-linejoin="round"/>
<path id="Vector_2" d="M41.7445 11.168C42.3977 11.7695 43.0164 12.3883 43.6008 13.0242L50.6391 14.0297C51.7859 16.0213 52.6698 18.1531 53.2687 20.3719L48.9891 26.0695C48.9891 26.0695 49.0664 27.8227 48.9891 28.6992L53.2687 34.3969C52.6726 36.6166 51.7885 38.7487 50.6391 40.7391L43.6008 41.7445C43.6008 41.7445 42.3891 43.0078 41.7445 43.6008L40.7391 50.6391C38.7474 51.7859 36.6156 52.6698 34.3969 53.2687L28.6992 48.9891C27.8244 49.0664 26.9444 49.0664 26.0695 48.9891L20.3719 53.2687C18.1522 52.6726 16.02 51.7885 14.0297 50.6391L13.0242 43.6008C12.3883 42.9992 11.7695 42.3805 11.168 41.7445L4.12969 40.7391C2.98289 38.7474 2.09897 36.6156 1.5 34.3969L5.77969 28.6992C5.77969 28.6992 5.70234 26.9461 5.77969 26.0695L1.5 20.3719C2.0962 18.1522 2.98026 16.02 4.12969 14.0297L11.168 13.0242C11.7695 12.3883 12.3883 11.7695 13.0242 11.168L14.0297 4.12969C16.0213 2.98289 18.1531 2.09897 20.3719 1.5L26.0695 5.77969C26.9444 5.70233 27.8244 5.70233 28.6992 5.77969L34.3969 1.5C36.6166 2.0962 38.7487 2.98026 40.7391 4.12969L41.7445 11.168Z" stroke="#393939" stroke-width="3" stroke-linecap="round" stroke-linejoin="round"/>
</g>
</svg>
