<svg width="77" height="76" viewBox="0 0 77 76" fill="none" xmlns="http://www.w3.org/2000/svg">
<g id="Ucin">
<circle id="Background" cx="45" cy="49.5" r="21.5" fill="#FFC107"/>
<path id="Pattern" d="M11.0048 58.4952C8.43942 55.9298 10.1404 50.5481 8.82981 47.3971C7.51923 44.2462 2.5 41.4856 2.5 38C2.5 34.5144 7.46346 31.8654 8.82981 28.6029C10.1962 25.3404 8.43942 20.0702 11.0048 17.5048C13.5702 14.9394 18.9519 16.6404 22.1029 15.3298C25.2538 14.0192 28.0144 9 31.5 9C34.9856 9 37.6346 13.9635 40.8971 15.3298C44.1596 16.6962 49.4298 14.9394 51.9952 17.5048C54.5606 20.0702 52.8596 25.4519 54.1702 28.6029C55.4808 31.7538 60.5 34.5144 60.5 38C60.5 41.4856 55.5365 44.1346 54.1702 47.3971C52.8038 50.6596 54.5606 55.9298 51.9952 58.4952C49.4298 61.0606 44.0481 59.3596 40.8971 60.6702C37.7462 61.9808 34.9856 67 31.5 67C28.0144 67 25.3654 62.0365 22.1029 60.6702C18.8404 59.3038 13.5702 61.0606 11.0048 58.4952Z" stroke="#303030" stroke-width="3" stroke-linecap="round" stroke-linejoin="round"/>
<path id="Pattern_2" d="M43.5 31L27.4909 47L19.5 39" stroke="#303030" stroke-width="3" stroke-linecap="round" stroke-linejoin="round"/>
</g>
</svg>
