<svg width="160" height="80" viewBox="0 0 160 80" fill="none" xmlns="http://www.w3.org/2000/svg">
<g id="3">
<g id="3_2" style="mix-blend-mode:multiply">
<g id="Group">
<path id="Vector" d="M78.3598 79.1244C100.275 79.1244 118.041 61.5363 118.041 39.8402C118.041 18.1441 100.275 0.555908 78.3598 0.555908C56.4445 0.555908 38.6787 18.1441 38.6787 39.8402C38.6787 61.5363 56.4445 79.1244 78.3598 79.1244Z" fill="white"/>
<path id="Vector_2" d="M78.3607 79.6801C56.1734 79.6801 38.1182 61.8055 38.1182 39.8401C38.1182 17.8747 56.1734 0 78.3607 0C100.548 0 118.603 17.8747 118.603 39.8401C118.603 61.8055 100.548 79.6801 78.3607 79.6801ZM78.3607 1.11161C56.7909 1.11161 39.241 18.4861 39.241 39.8401C39.241 61.1941 56.7909 78.5685 78.3607 78.5685C99.9304 78.5685 117.48 61.1941 117.48 39.8401C117.48 18.4861 99.9304 1.11161 78.3607 1.11161Z" fill="#263238"/>
</g>
<g id="Group_2">
<path id="Vector_3" d="M84.0195 4.5465C84.289 4.56873 84.5248 4.57984 84.7157 4.57984L84.6932 4.7577C84.3788 4.80217 84.1094 5.0356 83.896 5.48025L81.2237 10.7715L81.1451 10.7604L81.0777 10.7493L79.3822 4.84663C79.2699 4.45757 79.0791 4.24636 78.8096 4.21301L78.832 4.03516C79.079 4.07962 79.4047 4.11297 79.8089 4.15743C80.3366 4.2019 80.7296 4.23525 80.9879 4.23525L80.9654 4.4131C80.7296 4.40199 80.5612 4.4131 80.4601 4.44645C80.3591 4.4798 80.3029 4.56873 80.2917 4.67989C80.2805 4.77993 80.3029 4.92444 80.3591 5.11342L81.6054 9.62655L83.4581 5.93601C83.6153 5.63587 83.6939 5.39132 83.7164 5.21346C83.7388 5.02449 83.6827 4.87998 83.5592 4.77993C83.4357 4.67989 83.2335 4.62431 82.9641 4.59096L82.9865 4.4131C83.3121 4.46868 83.6602 4.51315 84.0195 4.5465Z" fill="#263238"/>
<path id="Vector_4" d="M91.5652 6.89197C91.4529 6.89197 91.3631 6.93644 91.2957 7.02537C91.2283 7.11429 91.1497 7.2588 91.0711 7.47001L89.4655 11.6941C89.3869 11.9053 89.342 12.0721 89.342 12.1832C89.342 12.2944 89.3757 12.3833 89.4542 12.45C89.5328 12.5167 89.6788 12.5945 89.8809 12.6835L89.8136 12.8502C89.5553 12.739 89.196 12.5945 88.7356 12.4167C88.2416 12.2277 87.871 12.1054 87.624 12.0276L87.6914 11.8609C87.9047 11.9276 88.0619 11.9609 88.163 11.9609C88.264 11.9609 88.3651 11.9164 88.4325 11.8275C88.4998 11.7386 88.5784 11.5941 88.657 11.3829L90.2627 7.15876C90.3413 6.94755 90.3862 6.78081 90.3862 6.66965C90.3862 6.55849 90.3525 6.46956 90.2739 6.40286C90.1953 6.33617 90.0494 6.25836 89.8472 6.16943L89.9146 6.00269C90.1504 6.10273 90.5097 6.24724 91.0038 6.43621C91.4641 6.61407 91.8347 6.73635 92.1041 6.81416L92.0368 6.9809C91.8347 6.91421 91.6775 6.88086 91.5652 6.89197Z" fill="#263238"/>
<path id="Vector_5" d="M101.559 12.7723C101.447 12.7501 101.334 12.7834 101.233 12.8501C101.132 12.9168 101.009 13.0502 100.874 13.2392L97.6179 17.6078L97.4495 17.4855L97.8874 10.4602L95.0017 14.3286C94.8669 14.5176 94.7771 14.6732 94.7322 14.7955C94.6873 14.9177 94.7098 15.0289 94.7659 15.1401C94.822 15.2512 94.9568 15.3735 95.1477 15.5291L95.0354 15.6736C94.8669 15.5291 94.6199 15.3401 94.2943 15.0956C94.0024 14.8844 93.7666 14.7176 93.5869 14.6176L93.6992 14.4731C93.8789 14.5954 94.0248 14.6621 94.1371 14.6732C94.2494 14.6954 94.3617 14.6621 94.4627 14.5954C94.5638 14.5176 94.6873 14.3953 94.822 14.2063L97.4719 10.6492C97.6067 10.4602 97.6965 10.3157 97.7302 10.2156C97.7639 10.1156 97.7526 10.0155 97.6965 9.92661C97.6404 9.83768 97.5281 9.72652 97.3484 9.58201L97.4607 9.4375C97.6067 9.57089 97.8312 9.74875 98.1344 9.95996C98.359 10.1267 98.5499 10.2601 98.7295 10.3601L98.3702 16.2517L100.706 13.1169C100.84 12.928 100.941 12.7723 100.975 12.6501C101.009 12.5278 100.998 12.4166 100.941 12.3055C100.885 12.1943 100.751 12.0609 100.56 11.9164L100.672 11.7719C100.84 11.9164 101.087 12.1054 101.413 12.3499C101.705 12.5611 101.941 12.7279 102.12 12.8279L102.008 12.9724C101.817 12.8613 101.671 12.7834 101.559 12.7723Z" fill="#263238"/>
<path id="Vector_6" d="M105.32 17.7857C105.612 17.5745 105.915 17.341 106.24 17.052C106.521 17.4744 107.015 18.1747 107.723 19.1641C108.43 20.1423 108.935 20.8315 109.238 21.2317C108.857 21.454 108.531 21.6541 108.239 21.8542C107.992 22.032 107.79 22.1876 107.644 22.3099L107.52 22.1432C107.88 21.8319 108.127 21.5763 108.273 21.3873C108.419 21.1983 108.475 20.9982 108.464 20.787C108.452 20.5758 108.318 20.3201 108.104 20.0089L107.812 19.6087L103.557 22.61C103.355 22.7546 103.209 22.8879 103.141 22.988C103.074 23.088 103.051 23.2103 103.096 23.3437C103.13 23.466 103.231 23.6438 103.377 23.8662L103.231 23.9773C103.063 23.7105 102.804 23.3326 102.468 22.8768C102.108 22.3766 101.839 22.0209 101.659 21.7986L101.805 21.6874C101.974 21.8986 102.108 22.0431 102.221 22.1209C102.333 22.1988 102.445 22.221 102.569 22.1876C102.692 22.1543 102.861 22.0654 103.063 21.9208L107.318 18.9195L107.026 18.5193C106.802 18.2081 106.6 18.0191 106.409 17.9302C106.218 17.8412 106.005 17.8301 105.78 17.9079C105.555 17.9858 105.23 18.1303 104.814 18.3637L104.691 18.197C104.859 18.108 105.061 17.9746 105.32 17.7857Z" fill="#263238"/>
<path id="Vector_7" d="M107.476 33.2149L107.297 33.2705C107.229 33.0259 107.139 32.7147 107.005 32.3367C106.836 31.8476 106.701 31.4808 106.6 31.2362L106.78 31.1807C106.859 31.3919 106.948 31.5475 107.016 31.6253C107.094 31.7031 107.195 31.7253 107.308 31.6809C107.409 31.6475 107.532 31.5697 107.678 31.4474L108.925 30.4359L108.217 28.3572L107.173 28.3127C106.836 28.2905 106.578 28.3127 106.398 28.3794C106.219 28.4461 106.106 28.5461 106.061 28.6906C106.028 28.8352 106.05 29.0464 106.129 29.302L105.949 29.3576C105.859 29.0241 105.747 28.6906 105.635 28.3572C105.545 28.1015 105.466 27.8903 105.388 27.7236L105.567 27.668C105.725 27.9348 106.061 28.0793 106.555 28.0904L112.529 28.3572L112.574 28.4906L107.813 32.4145C107.521 32.6924 107.409 32.9481 107.476 33.2149ZM111.372 28.4906L108.431 28.3683L109.093 30.3247L111.372 28.4906Z" fill="#263238"/>
<path id="Vector_8" d="M108.296 41.7189C108.408 41.6744 108.464 41.6188 108.464 41.541C108.464 41.4966 108.453 41.4632 108.43 41.4299C108.408 41.3965 108.363 41.3298 108.296 41.2409C108.127 41.0297 108.004 40.8074 107.914 40.585C107.824 40.3627 107.779 40.1071 107.779 39.8292C107.768 39.2067 107.891 38.6731 108.138 38.2173C108.397 37.7616 108.756 37.417 109.25 37.1724C109.733 36.9279 110.317 36.8056 111.002 36.7945C111.709 36.7833 112.327 36.8945 112.854 37.1391C113.382 37.3836 113.797 37.7171 114.089 38.1617C114.381 38.6064 114.539 39.1066 114.539 39.6624C114.539 39.907 114.516 40.1293 114.471 40.3183C114.426 40.5072 114.359 40.674 114.28 40.8185C114.202 40.963 114.101 41.1297 113.966 41.3076C113.91 41.3854 113.876 41.4521 113.876 41.4966C113.876 41.6077 114.067 41.6855 114.437 41.7189V41.9301C114.044 41.9079 113.337 41.9079 112.327 41.9301V41.7189C112.652 41.6633 112.922 41.5966 113.135 41.5299C113.348 41.4632 113.528 41.3632 113.685 41.2409C113.898 41.063 114.078 40.8296 114.202 40.5406C114.325 40.2516 114.381 39.9625 114.381 39.6513C114.37 39.2511 114.235 38.9065 113.966 38.6064C113.696 38.3062 113.315 38.0839 112.832 37.9172C112.338 37.7616 111.776 37.6837 111.125 37.6949C110.384 37.706 109.789 37.7949 109.317 37.9617C108.846 38.1284 108.509 38.3729 108.284 38.6953C108.06 39.0177 107.959 39.429 107.97 39.9292C107.981 40.296 108.082 40.6073 108.273 40.8741C108.352 40.9852 108.419 41.0519 108.498 41.0853C108.565 41.1186 108.666 41.1297 108.79 41.1297L109.677 41.1186C109.935 41.1186 110.115 41.0853 110.238 41.0408C110.35 40.9963 110.44 40.9074 110.474 40.774C110.519 40.6517 110.541 40.4517 110.541 40.1849H110.721C110.71 40.485 110.698 40.9074 110.71 41.4743C110.721 41.8967 110.732 42.2191 110.755 42.4192H110.575C110.564 42.2747 110.53 42.1746 110.496 42.1191C110.463 42.0635 110.384 42.019 110.283 41.9968C110.182 41.9746 110.013 41.9634 109.778 41.9746L107.959 42.0079V41.83C108.06 41.7856 108.183 41.7634 108.296 41.7189Z" fill="#263238"/>
<path id="Vector_9" d="M106.959 51.1785C106.633 51.0784 106.251 50.9784 105.813 50.8895C105.959 50.5004 106.173 49.8446 106.476 48.9108C106.835 47.7992 107.094 46.9544 107.251 46.3875L107.43 46.443C107.374 46.6542 107.352 46.8099 107.352 46.921C107.363 47.0322 107.408 47.11 107.498 47.1767C107.588 47.2434 107.745 47.3101 107.958 47.3768L112.303 48.7329C112.528 48.7996 112.685 48.833 112.798 48.833C112.91 48.833 113 48.7885 113.067 48.6996C113.134 48.6107 113.202 48.4662 113.28 48.2661L113.46 48.3217C113.258 48.8886 112.988 49.7223 112.629 50.8339C112.36 51.6787 112.169 52.2901 112.079 52.6569C111.708 52.5013 111.372 52.3679 111.057 52.279C110.833 52.2123 110.642 52.1567 110.507 52.1345L110.574 51.9344C110.967 52.0122 111.27 52.0455 111.473 52.0455C111.675 52.0455 111.843 51.9788 111.978 51.8455C112.113 51.7232 112.225 51.5009 112.326 51.2007L112.551 50.4782C112.618 50.267 112.652 50.1113 112.64 50.0113C112.629 49.9113 112.595 49.8223 112.506 49.7556C112.416 49.6889 112.27 49.6222 112.045 49.5555L109.979 48.9108L109.8 49.4888C109.71 49.7779 109.732 50.0002 109.878 50.1558C110.024 50.3114 110.181 50.4226 110.361 50.5004C110.541 50.5782 110.653 50.6338 110.698 50.656L110.63 50.8561C110.35 50.745 110.08 50.6449 109.811 50.5671L109.395 50.4448C109.103 50.3559 108.677 50.2336 108.138 50.1113L108.205 49.9113C108.25 49.9224 108.396 49.9446 108.643 50.0002C108.89 50.0446 109.103 50.0224 109.272 49.9335C109.44 49.8446 109.553 49.6778 109.631 49.4444L109.811 48.8663L107.7 48.2105C107.475 48.1438 107.318 48.1104 107.206 48.1104C107.094 48.1104 107.004 48.1549 106.948 48.2438C106.88 48.3328 106.813 48.4773 106.745 48.6885L106.543 49.3221C106.431 49.6889 106.386 49.978 106.431 50.1892C106.465 50.4115 106.577 50.5893 106.768 50.745C106.959 50.8895 107.251 51.0562 107.644 51.2341L107.576 51.4342C107.442 51.3341 107.228 51.2674 106.959 51.1785Z" fill="#263238"/>
<path id="Vector_10" d="M103.759 64.8181C103.804 64.718 103.793 64.618 103.748 64.518C103.703 64.4179 103.591 64.2956 103.422 64.1289L100.121 61.0053C99.9529 60.8496 99.8182 60.7496 99.7171 60.7051C99.6161 60.6607 99.515 60.6607 99.414 60.7051C99.3129 60.7496 99.1894 60.8496 99.0322 61.0053L98.8975 60.883C99.1108 60.694 99.3803 60.4161 99.7284 60.0715C100.088 59.6936 100.357 59.4045 100.526 59.2156L100.66 59.3379C100.514 59.5046 100.425 59.638 100.38 59.7269C100.335 59.827 100.346 59.927 100.391 60.0271C100.436 60.1271 100.548 60.2494 100.716 60.4161L104.018 63.5397C104.186 63.6954 104.321 63.7954 104.422 63.8399C104.523 63.8843 104.624 63.8843 104.725 63.8399C104.826 63.7954 104.95 63.6954 105.107 63.5397L105.241 63.662C105.051 63.8288 104.77 64.1067 104.411 64.4846C104.063 64.8403 103.804 65.1293 103.625 65.3405L103.49 65.2183C103.625 65.0515 103.714 64.9181 103.759 64.8181Z" fill="#263238"/>
<path id="Vector_11" d="M94.4052 71.5988C94.4726 71.4987 94.4838 71.3987 94.4614 71.2764C94.4389 71.1541 94.3603 70.9985 94.2368 70.7873L91.4521 66.1074L91.6318 65.9963L97.9871 69.1421L95.528 65.0069C95.4045 64.8069 95.3035 64.6623 95.2024 64.5845C95.1014 64.5067 94.9891 64.4734 94.8656 64.4845C94.7421 64.4956 94.5736 64.5623 94.3603 64.6735L94.2592 64.5178C94.4614 64.4289 94.7308 64.2733 95.0789 64.0732C95.3933 63.8842 95.6291 63.7397 95.7975 63.6174L95.8874 63.7731C95.7077 63.8842 95.5842 63.9954 95.528 64.0954C95.4607 64.1955 95.4495 64.2955 95.4719 64.4178C95.4944 64.5401 95.573 64.6957 95.6965 64.9069L97.9646 68.7197C98.0769 68.9198 98.1779 69.0532 98.2678 69.1199C98.3576 69.1866 98.4474 69.2199 98.5597 69.1977C98.6608 69.1755 98.818 69.1199 99.0088 69.0199L99.0987 69.1755C98.919 69.2644 98.672 69.3978 98.3464 69.5868C98.1106 69.7202 97.9085 69.8536 97.74 69.9647L92.4066 67.3302L94.4052 70.6873C94.5287 70.8874 94.6298 71.0319 94.7308 71.1097C94.8207 71.1875 94.9329 71.2208 95.0677 71.2097C95.2024 71.1986 95.3709 71.1319 95.5842 71.0207L95.674 71.1764C95.4719 71.2653 95.2024 71.4209 94.8543 71.621C94.5399 71.81 94.3042 71.9545 94.1357 72.0768L94.0459 71.9211C94.2143 71.7989 94.3378 71.6877 94.4052 71.5988Z" fill="#263238"/>
<path id="Vector_12" d="M88.2305 73.055C88.3091 73.3996 88.4101 73.7776 88.5449 74.1778C88.0396 74.2667 87.1975 74.4445 86.0073 74.6891C84.8171 74.9448 83.9862 75.1337 83.4921 75.256C83.436 74.8225 83.3798 74.4445 83.3012 74.0999C83.2339 73.7998 83.1777 73.5553 83.1104 73.3774L83.3125 73.3329C83.4584 73.7887 83.5932 74.1111 83.7167 74.3223C83.8402 74.5335 83.9974 74.6669 84.1995 74.7336C84.4016 74.8003 84.6936 74.7891 85.0641 74.7113L85.5469 74.6113L84.4465 69.5535C84.3904 69.3089 84.3342 69.131 84.2556 69.031C84.177 68.931 84.0872 68.8643 83.9525 68.8531C83.8177 68.8309 83.6156 68.8531 83.3461 68.8976L83.3125 68.7198C83.6269 68.6753 84.076 68.5864 84.6374 68.4641C85.2325 68.3307 85.6817 68.2306 85.9624 68.1528L85.996 68.3307C85.7266 68.3974 85.5469 68.4641 85.4346 68.5308C85.3223 68.5975 85.255 68.6975 85.2325 68.8198C85.2101 68.9421 85.2213 69.131 85.2774 69.3756L86.3778 74.4334L86.8606 74.3334C87.2312 74.2556 87.5006 74.1444 87.6578 73.9999C87.815 73.8554 87.9049 73.6664 87.9273 73.433C87.9498 73.1995 87.9386 72.8438 87.8824 72.3769L88.0845 72.3325C88.1182 72.5103 88.1631 72.7549 88.2305 73.055Z" fill="#263238"/>
<path id="Vector_13" d="M73.3305 69.9313C73.3642 69.5867 73.3754 69.1977 73.3754 68.7642C73.7909 68.8197 74.487 68.8864 75.4751 68.9754C76.6429 69.0754 77.5299 69.1532 78.1362 69.1866L78.125 69.3644C77.9005 69.3533 77.7433 69.3644 77.6422 69.3978C77.5411 69.4311 77.4625 69.4867 77.4176 69.5867C77.3727 69.6868 77.339 69.8535 77.3166 70.0759L76.9124 74.5779C76.8899 74.8002 76.9011 74.9669 76.9236 75.0781C76.946 75.1893 77.0134 75.2671 77.1145 75.3115C77.2155 75.356 77.3727 75.4005 77.5861 75.4227L77.5748 75.6006C76.9797 75.5339 76.0927 75.4449 74.9249 75.3449C74.0267 75.2671 73.3866 75.2226 73.0049 75.2004C73.0835 74.8113 73.1396 74.4556 73.1621 74.1332C73.1845 73.8998 73.1958 73.7108 73.1845 73.5663L73.3979 73.5885C73.4091 73.9887 73.4316 74.2777 73.4877 74.4778C73.5326 74.6779 73.6337 74.8224 73.7909 74.9225C73.9368 75.0225 74.1839 75.0892 74.4983 75.1114L75.2618 75.1781C75.4864 75.2004 75.6435 75.1893 75.7446 75.167C75.8457 75.1448 75.9243 75.0781 75.9692 74.9781C76.0141 74.878 76.0478 74.7113 76.0702 74.4889L76.2611 72.3547L75.6548 72.2991C75.3516 72.2768 75.1383 72.3435 75.0148 72.5214C74.9025 72.6993 74.8127 72.8771 74.779 73.0661C74.7341 73.2551 74.7116 73.3773 74.7004 73.4329L74.487 73.4107C74.5319 73.1106 74.5656 72.8326 74.5993 72.5547L74.633 72.1212C74.6555 71.81 74.6779 71.3876 74.7004 70.8318L74.9137 70.854C74.9137 70.8985 74.9249 71.043 74.9249 71.2986C74.9362 71.5543 74.9923 71.7544 75.127 71.8878C75.2506 72.0323 75.4414 72.1101 75.6885 72.1323L76.2948 72.1879L76.4857 70.0092C76.5081 69.7868 76.4969 69.6201 76.4745 69.5089C76.452 69.4089 76.3846 69.3311 76.2836 69.2866C76.1825 69.2422 76.0253 69.2088 75.812 69.1866L75.1383 69.131C74.7565 69.0976 74.4646 69.1199 74.2512 69.2088C74.0491 69.2866 73.8919 69.4422 73.7796 69.6534C73.6674 69.8647 73.5775 70.187 73.4877 70.6094L73.2744 70.5872C73.2744 70.4205 73.2968 70.1981 73.3305 69.9313Z" fill="#263238"/>
<path id="Vector_14" d="M64.4943 65.8074C64.6627 65.774 64.8536 65.8074 65.0557 65.8963C65.2915 65.9963 65.4487 66.1408 65.5385 66.3298C65.6284 66.5299 65.6396 66.8078 65.5834 67.1746L65.415 68.0862C65.3589 68.4085 65.3252 68.6531 65.314 68.8421C65.3027 69.0199 65.3476 69.1867 65.4262 69.3312C65.5048 69.4757 65.6508 69.5868 65.8641 69.6758L66.6726 70.0092L67.4923 68.075C67.5821 67.8638 67.627 67.7082 67.6382 67.5971C67.6495 67.4859 67.6045 67.397 67.5259 67.3192C67.4474 67.2413 67.3126 67.1635 67.1105 67.0746L67.1779 66.9079C67.4361 67.0301 67.7842 67.1858 68.2446 67.3747C68.7274 67.5748 69.0979 67.7193 69.3449 67.7971L69.2776 67.9639C69.0642 67.8861 68.907 67.8527 68.806 67.8416C68.6937 67.8416 68.6039 67.875 68.5365 67.9639C68.4579 68.0417 68.3793 68.1862 68.2895 68.3974L66.5266 72.5659C66.4368 72.7771 66.3919 72.9328 66.3807 73.0439C66.3694 73.1551 66.4143 73.244 66.4929 73.3218C66.5715 73.3997 66.7063 73.4775 66.9084 73.5775L66.841 73.7442C66.6052 73.6331 66.2684 73.4775 65.8192 73.2885C65.5947 73.1996 65.3589 73.0995 65.0894 72.9884C64.8199 72.8772 64.6403 72.8105 64.5392 72.766C64.1013 72.5771 63.7532 72.3659 63.495 72.1102C63.2367 71.8545 63.0907 71.5877 63.0234 71.2987C62.956 71.0097 62.9897 70.7318 63.1132 70.4539C63.203 70.2316 63.349 70.0315 63.5511 69.8536C63.7532 69.6758 64.0115 69.5424 64.3259 69.4757C64.6403 69.409 65.022 69.4201 65.4375 69.5201L65.3364 69.4646C65.1006 69.32 64.921 69.1755 64.8087 69.0199C64.6964 68.8754 64.6178 68.7087 64.5953 68.5308C64.5617 68.3529 64.5729 68.1306 64.6178 67.8638L64.775 66.919C64.8087 66.73 64.8311 66.5855 64.8311 66.4743C64.8311 66.3632 64.8199 66.2742 64.7862 66.2075C64.7525 66.1408 64.6964 66.0853 64.6178 66.063C64.528 66.0186 64.4381 66.0186 64.3595 66.0408C64.2809 66.063 64.1687 66.1186 64.0227 66.1964L63.9329 66.0519C64.135 65.9296 64.3259 65.8407 64.4943 65.8074ZM65.0557 69.7647C64.7862 69.798 64.5729 69.8981 64.4045 70.0648C64.236 70.2316 64.0901 70.4539 63.9666 70.7429C63.7757 71.1987 63.7308 71.5988 63.8543 71.9212C63.9778 72.2436 64.2809 72.5104 64.7862 72.7216C64.9659 72.7994 65.1006 72.8327 65.2129 72.8216C65.314 72.8216 65.4038 72.7771 65.4824 72.6882C65.561 72.5993 65.6396 72.4548 65.7182 72.2547L66.594 70.1871L66.0213 69.9537C65.6508 69.798 65.3252 69.7313 65.0557 69.7647Z" fill="#263238"/>
<path id="Vector_15" d="M55.7353 67.3191C55.8363 67.3525 55.9374 67.3302 56.0272 67.2747C56.117 67.2191 56.2405 67.0968 56.3865 66.919L59.2048 63.3618C59.3508 63.1839 59.4406 63.0394 59.4743 62.9394C59.508 62.8393 59.4968 62.7393 59.4406 62.6504C59.3845 62.5614 59.2722 62.4392 59.1038 62.2947L59.216 62.1501C59.4294 62.3391 59.7213 62.5837 60.1143 62.8838C60.5298 63.2062 60.8442 63.4396 61.0575 63.5841L60.9452 63.7286C60.7656 63.5952 60.6196 63.5174 60.5185 63.4952C60.4175 63.4618 60.3164 63.473 60.2266 63.5397C60.1368 63.5952 60.0133 63.7175 59.8673 63.8954L57.049 67.4525C56.903 67.6304 56.8132 67.7749 56.7795 67.8749C56.7458 67.975 56.757 68.075 56.8132 68.164C56.8693 68.2529 56.9816 68.3752 57.15 68.5197L57.0377 68.6642C56.8469 68.4974 56.5437 68.2529 56.1282 67.9194C55.7353 67.6193 55.4209 67.3858 55.1963 67.2302L55.3086 67.0857C55.4995 67.208 55.6342 67.2858 55.7353 67.3191Z" fill="#263238"/>
<path id="Vector_16" d="M48.4813 59.4045C48.4364 58.9043 48.5487 58.4041 48.807 57.9261C49.0764 57.437 49.4807 57.0035 50.0421 56.5922C50.5923 56.2031 51.1425 55.9474 51.7151 55.8474C52.2878 55.7473 52.8155 55.7807 53.3095 55.9697C53.8036 56.1586 54.219 56.481 54.5447 56.9368C54.8927 57.4036 55.0836 57.8927 55.1285 58.393C55.1734 58.8932 55.0612 59.3934 54.8029 59.8714C54.5334 60.3605 54.1292 60.7941 53.5678 61.2053C53.0176 61.5944 52.4674 61.8501 51.8948 61.9501C51.3333 62.0502 50.7944 62.0168 50.3003 61.8278C49.8063 61.6389 49.3908 61.3165 49.0652 60.8719C48.7171 60.3939 48.5263 59.9048 48.4813 59.4045ZM50.1656 61.3832C50.5586 61.461 51.0077 61.4277 51.5018 61.272C51.9958 61.1164 52.4899 60.8607 53.0064 60.4828C53.5229 60.116 53.9271 59.7158 54.2078 59.2934C54.4997 58.871 54.6569 58.4486 54.6794 58.0484C54.7131 57.6482 54.612 57.2925 54.3987 56.9923C54.1629 56.6811 53.8597 56.481 53.4555 56.4032C53.0625 56.3254 52.6134 56.3587 52.1193 56.5144C51.6253 56.67 51.1312 56.9257 50.6147 57.2925C50.0982 57.6593 49.694 58.0595 49.4133 58.493C49.1214 58.9154 48.9642 59.3267 48.9305 59.738C48.8968 60.1382 48.9978 60.4939 49.2112 60.794C49.447 61.1053 49.7614 61.3054 50.1656 61.3832Z" fill="#263238"/>
<path id="Vector_17" d="M49.346 46.0207C49.4807 46.1207 49.5818 46.2875 49.6492 46.5098C49.7278 46.7432 49.7165 46.9656 49.6267 47.1545C49.5369 47.3546 49.3236 47.5436 48.9979 47.7326L48.1783 48.1883C47.8975 48.3551 47.6842 48.4885 47.5382 48.5996C47.3923 48.7108 47.2912 48.8442 47.2351 48.9998C47.1789 49.1554 47.1789 49.3333 47.2463 49.5556L47.5046 50.3893L49.5257 49.7668C49.7502 49.7001 49.8962 49.6334 49.986 49.5667C50.0759 49.5 50.1208 49.4111 50.132 49.3111C50.1432 49.211 50.1095 49.0443 50.0534 48.8331L50.233 48.7775C50.3004 49.0443 50.4015 49.4222 50.5587 49.8891C50.7159 50.3893 50.8394 50.7561 50.9292 50.9896L50.7496 51.0452C50.671 50.834 50.6036 50.6894 50.5362 50.6116C50.4688 50.5338 50.379 50.4782 50.2667 50.4782C50.1545 50.4782 49.986 50.5005 49.7727 50.5783L45.4161 51.9122C45.1915 51.9789 45.0455 52.0456 44.9557 52.1123C44.8659 52.179 44.821 52.2679 44.8097 52.368C44.7985 52.4791 44.8322 52.6348 44.8883 52.846L44.7087 52.9016C44.6525 52.657 44.5515 52.3013 44.4055 51.8344C44.3382 51.6121 44.2483 51.3564 44.1585 51.0896C44.0687 50.8228 44.0013 50.6339 43.9676 50.5338C43.8216 50.0781 43.7767 49.6779 43.8104 49.3222C43.8441 48.9665 43.9564 48.6774 44.136 48.444C44.3157 48.2106 44.5515 48.0549 44.8434 47.966C45.068 47.8993 45.315 47.8771 45.5845 47.9104C45.854 47.9438 46.1122 48.0549 46.3817 48.255C46.6512 48.4551 46.8758 48.7441 47.0666 49.1332L47.0554 49.022C47.0217 48.7441 47.0105 48.5218 47.0554 48.3328C47.1003 48.1439 47.1789 47.9882 47.2912 47.8548C47.4147 47.7215 47.5944 47.5769 47.8302 47.4436L48.6611 46.9544C48.8295 46.8655 48.9642 46.7766 49.0428 46.7099C49.1214 46.6432 49.1888 46.5765 49.2225 46.5098C49.2562 46.4431 49.2562 46.3653 49.2337 46.2875C49.2 46.1874 49.1551 46.1207 49.0878 46.0763C49.0204 46.0318 48.9081 45.9762 48.7509 45.9206L48.807 45.7539C49.0316 45.8317 49.2225 45.9206 49.346 46.0207ZM46.6624 48.9998C46.4715 48.8219 46.247 48.7219 46.0112 48.6997C45.7754 48.6774 45.5059 48.7108 45.2027 48.8108C44.7199 48.9553 44.3943 49.1888 44.2146 49.4889C44.035 49.789 44.035 50.2003 44.1922 50.7006C44.2483 50.8784 44.3157 51.0118 44.3831 51.0896C44.4504 51.1674 44.5515 51.2119 44.6638 51.2119C44.7761 51.2119 44.9445 51.1786 45.1466 51.123L47.3024 50.456L47.1228 49.8669C47.0105 49.4667 46.8533 49.1777 46.6624 48.9998Z" fill="#263238"/>
<path id="Vector_18" d="M48.4816 35.4716C48.9083 35.2826 49.1666 34.9269 49.2788 34.3933C49.3125 34.1932 49.3125 33.9931 49.2564 33.8042C49.2003 33.6152 49.0992 33.4484 48.942 33.3039C48.7848 33.1594 48.5715 33.0594 48.2908 33.0149C48.055 32.9705 47.8416 32.9927 47.6395 33.0705C47.4374 33.1483 47.2353 33.2706 47.0444 33.4373C46.8535 33.6041 46.629 33.8264 46.3819 34.1043C46.1012 34.4155 45.8542 34.6712 45.6409 34.8491C45.4275 35.038 45.1917 35.1714 44.9335 35.2715C44.6752 35.3715 44.3833 35.3826 44.0577 35.3271C43.7208 35.2604 43.4401 35.1381 43.238 34.938C43.0359 34.7379 42.8899 34.5045 42.8225 34.2266C42.7552 33.9487 42.7552 33.6596 42.8113 33.3484C42.845 33.1594 42.8899 33.0149 42.946 32.8815C43.0022 32.7481 43.0583 32.6481 43.1257 32.5703C43.1931 32.4925 43.2604 32.4035 43.3503 32.3146C43.4626 32.1923 43.5187 32.1034 43.5412 32.0367C43.5524 31.9811 43.5299 31.9367 43.4738 31.8922C43.4176 31.8477 43.3166 31.8144 43.1818 31.7699L43.2155 31.5698C43.5636 31.6588 44.1699 31.7921 45.057 31.9589L45.0233 32.159C44.7089 32.1256 44.417 32.1367 44.125 32.2034C43.8443 32.259 43.5973 32.3813 43.3952 32.5703C43.1931 32.7481 43.0583 33.0038 43.0022 33.3151C42.9573 33.5263 42.9685 33.7152 43.0246 33.9042C43.0808 34.0932 43.1818 34.2377 43.3166 34.36C43.4626 34.4822 43.631 34.5601 43.8331 34.6045C44.1587 34.6601 44.4394 34.6156 44.6752 34.46C44.911 34.3044 45.1356 34.1043 45.3489 33.8709C45.5623 33.6374 45.697 33.4818 45.7756 33.404C46.09 33.0705 46.3482 32.8148 46.5616 32.6259C46.7749 32.4369 47.0107 32.3035 47.269 32.2146C47.5272 32.1256 47.8079 32.1145 48.1111 32.1701C48.4816 32.2368 48.7848 32.3813 49.0094 32.5925C49.2339 32.8148 49.3799 33.0705 49.4585 33.3817C49.5371 33.693 49.5371 34.0265 49.4697 34.3822C49.4136 34.6712 49.3462 34.8935 49.2452 35.0714C49.1553 35.2492 49.0318 35.4049 48.8971 35.5494C48.7848 35.6717 48.7287 35.7606 48.7062 35.8273C48.695 35.8829 48.7174 35.9273 48.7736 35.9718C48.8297 36.0163 48.9308 36.0607 49.0655 36.0941L49.0318 36.2942C48.7062 36.2052 47.9876 36.0607 46.876 35.8606L46.9097 35.6605C47.5385 35.7161 48.055 35.6605 48.4816 35.4716Z" fill="#263238"/>
<path id="Vector_19" d="M46.2586 26.1006C45.9442 25.9339 45.5849 25.7783 45.1807 25.6227C45.4277 25.1891 45.8431 24.4332 46.4046 23.355C46.966 22.2878 47.359 21.5319 47.5723 21.0762C47.9428 21.3096 48.2797 21.5097 48.5829 21.6653C48.8523 21.8098 49.0881 21.9099 49.2678 21.9877L49.1667 22.1767C48.7176 21.9988 48.3808 21.8876 48.145 21.8543C47.9092 21.8098 47.6958 21.8543 47.5162 21.9655C47.3365 22.0766 47.1569 22.2989 46.9884 22.6324L46.7639 23.0771L51.4012 25.467C51.6258 25.5893 51.8054 25.6449 51.9289 25.656C52.0524 25.6671 52.1647 25.6338 52.2658 25.5448C52.3668 25.4559 52.4791 25.2892 52.6138 25.0557L52.7823 25.1447C52.6138 25.4226 52.4005 25.8116 52.131 26.323C51.8503 26.8565 51.6482 27.2678 51.5247 27.5235L51.3563 27.4346C51.4686 27.19 51.5472 27.001 51.5584 26.8788C51.5808 26.7454 51.5472 26.6342 51.4573 26.5342C51.3675 26.4341 51.2215 26.3341 50.997 26.2118L46.3596 23.8107L46.1238 24.2443C45.9442 24.5777 45.8656 24.8445 45.8768 25.0557C45.8881 25.2669 45.9779 25.4559 46.1463 25.6227C46.3147 25.7894 46.5954 26.0117 46.9997 26.2674L46.8986 26.4564C46.7526 26.3674 46.5281 26.2452 46.2586 26.1006Z" fill="#263238"/>
<path id="Vector_20" d="M54.1864 13.3283C54.3773 13.1394 54.5345 12.9615 54.6467 12.8281L54.7815 12.9615C54.7141 13.0616 54.6804 13.2061 54.6917 13.3728C54.7029 13.5396 54.7478 13.773 54.8376 14.0509L55.8594 17.0634L57.0496 18.2305C57.218 18.3862 57.3416 18.4973 57.4426 18.5418C57.5437 18.5863 57.6447 18.5863 57.7458 18.5418C57.8468 18.4973 57.9703 18.3973 58.1388 18.2528L58.2735 18.3862C58.0602 18.5751 57.7795 18.8419 57.4314 19.1865C57.0609 19.5534 56.7914 19.8424 56.6229 20.0314L56.4882 19.898C56.6342 19.7312 56.7352 19.6089 56.7801 19.5089C56.8251 19.4088 56.8251 19.3088 56.7689 19.2088C56.724 19.1087 56.6117 18.9753 56.4545 18.8197L55.4664 17.8526L51.7161 16.7632C51.4916 16.6965 51.3232 16.6743 51.2109 16.6854C51.0986 16.6965 51.02 16.7299 50.9638 16.7855L50.8291 16.6521C51.0088 16.4964 51.2109 16.3186 51.413 16.1074C51.8284 15.685 52.1316 15.3848 52.3 15.1847L52.4348 15.3181C52.1316 15.6183 52.0642 15.8517 52.2326 16.0184C52.3 16.0851 52.3898 16.1296 52.5246 16.1741L55.6798 17.1412L54.8489 14.6845C54.7253 14.3288 54.6018 14.0842 54.4671 13.962C54.3436 13.8397 54.2088 13.8063 54.0629 13.8508C53.9169 13.8953 53.7485 14.0064 53.5464 14.1954L53.4116 14.062C53.6811 13.8175 53.9281 13.5729 54.1864 13.3283Z" fill="#263238"/>
<path id="Vector_21" d="M60.9792 8.84845C60.9118 8.92626 60.8781 9.02631 60.9006 9.13747C60.923 9.24863 60.9792 9.40426 61.0914 9.60435L63.2585 13.5839C63.3708 13.784 63.4606 13.9174 63.5505 13.9952C63.6291 14.073 63.7301 14.0952 63.8312 14.0841C63.9322 14.073 64.0894 14.0063 64.2803 13.9063L64.8754 13.5839C65.2123 13.406 65.4481 13.2171 65.5716 13.0281C65.6951 12.8391 65.74 12.6279 65.7063 12.3723C65.6726 12.1166 65.5716 11.7942 65.3919 11.3718L65.5828 11.2718C65.6614 11.4496 65.7737 11.6719 65.9197 11.9387C66.0881 12.2389 66.2902 12.5723 66.5372 12.9392C66.1667 13.117 65.5379 13.4394 64.6733 13.9063C63.6403 14.4621 62.8543 14.8845 62.3378 15.1846L62.248 15.029C62.4389 14.9178 62.5736 14.8178 62.641 14.74C62.7083 14.6622 62.742 14.5621 62.7196 14.451C62.6971 14.3398 62.641 14.1842 62.5287 13.9841L60.3391 10.0045C60.2269 9.80444 60.137 9.67104 60.0472 9.59323C59.9686 9.51542 59.8676 9.49319 59.7665 9.5043C59.6542 9.51542 59.5083 9.571 59.3061 9.67104L59.2275 9.5043C59.4633 9.40426 59.8114 9.2264 60.2718 8.97073C60.7097 8.73729 61.0465 8.54832 61.2823 8.40381L61.3722 8.55943C61.1813 8.67059 61.0578 8.77064 60.9792 8.84845Z" fill="#263238"/>
<path id="Vector_22" d="M74.6547 9.55984C74.7221 9.89332 74.8231 10.2713 74.9466 10.6937C74.5312 10.7604 73.8463 10.8826 72.8806 11.0716C71.7241 11.2939 70.8595 11.4718 70.2644 11.6052L70.2307 11.4273C70.4441 11.3718 70.6013 11.3273 70.6911 11.2606C70.7809 11.205 70.8371 11.1161 70.8483 11.016C70.8595 10.9049 70.8483 10.7381 70.8034 10.5158L69.9276 6.0805C69.8826 5.85818 69.8377 5.70255 69.7704 5.60251C69.703 5.50246 69.6356 5.44688 69.5233 5.43577C69.4223 5.41353 69.2539 5.42465 69.0405 5.458L69.0068 5.28014C69.6019 5.1801 70.4778 5.02447 71.623 4.80215C72.5101 4.62429 73.1389 4.50201 73.4982 4.41309C73.5319 4.81327 73.588 5.16898 73.6442 5.48023C73.6891 5.71367 73.734 5.89153 73.7789 6.02492L73.5768 6.06938C73.4533 5.69144 73.341 5.41353 73.2399 5.23568C73.1389 5.05782 72.9929 4.94666 72.8245 4.89108C72.6448 4.8355 72.409 4.8355 72.0834 4.90219L71.3311 5.0467C71.1178 5.09117 70.9606 5.13563 70.8707 5.19121C70.7809 5.24679 70.7248 5.32461 70.7023 5.43577C70.6911 5.54693 70.7023 5.71367 70.7472 5.93599L71.1627 8.04805L71.7578 7.92577C72.061 7.87019 72.2406 7.7368 72.308 7.53671C72.3753 7.33662 72.3978 7.14764 72.3866 6.95867C72.3753 6.7697 72.3641 6.64742 72.3641 6.59184L72.5662 6.54737C72.5999 6.84751 72.6448 7.12541 72.701 7.3922L72.7908 7.81461C72.8469 8.11474 72.948 8.53715 73.094 9.07073L72.8919 9.11519C72.8806 9.07073 72.8357 8.93733 72.7571 8.69278C72.6785 8.44823 72.5662 8.28149 72.3978 8.18144C72.2294 8.0814 72.0385 8.05916 71.7915 8.10363L71.1964 8.21479L71.623 10.3602C71.668 10.5825 71.7129 10.7381 71.769 10.8382C71.8252 10.9271 71.9038 10.9827 72.016 11.0049C72.1171 11.016 72.2855 11.0049 72.4989 10.9605L73.1613 10.8271C73.5319 10.7493 73.8126 10.6492 73.9922 10.5158C74.1719 10.3824 74.2729 10.1935 74.3179 9.96001C74.3628 9.72658 74.3628 9.39309 74.3291 8.95957L74.5312 8.9151C74.5649 9.08184 74.5986 9.29305 74.6547 9.55984Z" fill="#263238"/>
</g>
<g id="Group_3">
<path id="Vector_23" d="M67.087 52.0123C66.5705 51.3231 66.1214 50.5672 65.7284 49.7335C65.3354 48.8998 65.021 48.055 64.7852 47.1879C64.2687 43.3751 64.2575 39.6734 64.7403 36.0829C65.2231 32.4924 66.0091 28.9575 67.087 25.4671C67.2667 25.078 67.6597 24.889 68.266 24.889C68.8723 24.889 69.4674 25.0224 70.0738 25.2892C70.6801 25.556 71.1741 25.9117 71.5671 26.3563C71.9601 26.801 72.05 27.2679 71.8366 27.7459C71.4998 28.4573 71.1741 29.4244 70.8485 30.6249C70.5229 31.8366 70.1973 33.1705 69.9053 34.6267C69.6022 36.0829 69.3439 37.6169 69.1193 39.2065C68.8948 40.7961 68.7264 42.3302 68.6253 43.7864C68.5242 45.2426 68.5018 46.5654 68.5579 47.7437C68.6141 48.922 68.7937 49.8558 69.0969 50.5338C70.5117 48.6552 71.8029 46.7099 72.9819 44.6979C74.1609 42.6859 75.2613 40.6516 76.2943 38.5729C77.3273 36.5053 78.3154 34.4155 79.2473 32.2923C80.1793 30.1803 81.1 28.0905 81.9983 26.034C82.4474 24.9891 82.8966 23.8886 83.3345 22.7325C83.7724 21.5653 84.345 20.576 85.0749 19.7423C85.378 19.4755 85.6138 19.3866 85.771 19.4755C85.9395 19.5644 86.0517 19.7312 86.1079 19.9868C86.164 20.2425 86.1977 20.5093 86.1977 20.7872C86.1977 21.0651 86.1977 21.2874 86.1977 21.4319C85.9844 22.7992 85.8047 24.1554 85.6587 25.5004C85.5128 26.8455 85.1872 28.1349 84.7156 29.391C83.9296 31.3586 83.1324 33.3039 82.3015 35.2492C81.4706 37.1834 80.5835 39.0954 79.6403 40.974C78.6972 42.8526 77.6641 44.6757 76.575 46.4431C75.4746 48.2217 74.2844 49.9113 72.9819 51.5121C71.9601 52.7904 70.9383 53.4685 69.939 53.5463C68.8948 53.6352 67.9628 53.1128 67.087 52.0123Z" fill="#FF5196" stroke="white" stroke-miterlimit="10"/>
<path id="Vector_24" d="M85.6811 46.9657C85.0748 46.132 84.4797 45.2872 83.8958 44.4201C83.3119 43.5531 83.02 42.6082 83.02 41.5633C83.02 40.4072 83.3568 39.3067 84.0305 38.2729C84.7042 37.2503 85.479 36.4165 86.3548 35.794C86.7141 35.5606 87.0846 35.3605 87.4552 35.216C87.8257 35.0715 88.2299 35.0826 88.6566 35.2605C88.8363 35.3494 89.0272 35.4161 89.218 35.4606C89.4089 35.505 89.5886 35.5606 89.7345 35.6162C89.8805 35.6718 90.0489 35.7607 90.2286 35.883C90.4082 36.0053 90.4981 36.1609 90.4981 36.3721C90.4981 37.2058 90.5205 37.8839 90.5654 38.4063C90.6104 38.9288 90.6777 39.3734 90.7676 39.7514C90.8574 40.1293 90.9472 40.4517 91.037 40.7296C91.1269 41.0186 91.2167 41.3187 91.3065 41.6411C91.3627 41.9412 91.3514 42.1969 91.2616 42.397C91.1718 42.6082 90.9472 42.6304 90.5879 42.4859C89.9254 42.2525 89.4314 41.7745 89.117 41.052C88.8026 40.3294 88.5668 39.6847 88.4208 39.0844C88.3871 38.9621 88.3198 38.762 88.1963 38.4619C88.0727 38.1618 88.0054 37.9506 87.9717 37.8394C87.7359 37.7838 87.444 37.8616 87.1183 38.084C86.7927 38.3063 86.4895 38.6175 86.2425 38.9955C85.9843 39.3845 85.8158 39.8292 85.7485 40.3405C85.6699 40.8519 85.7709 41.3521 86.0404 41.8634C86.1639 42.0413 86.3323 42.2636 86.5569 42.5082C86.7815 42.7638 87.006 43.0195 87.2306 43.2863C87.4552 43.5531 87.6797 43.8199 87.9043 44.0644C88.1289 44.309 88.3198 44.5202 88.4657 44.6647C88.6454 44.8425 88.7689 44.9426 88.825 44.9537C88.8812 44.9648 89.0384 44.9315 89.2742 44.8425C89.5773 44.698 90.0377 44.4979 90.6553 44.2645C91.2728 44.0311 91.9241 43.7865 92.5978 43.5531C93.2715 43.3196 93.9227 43.1195 94.5403 42.9528C95.1578 42.7861 95.6294 42.7083 95.9663 42.7083C96.1796 42.7083 96.3256 42.7861 96.4154 42.9306C96.5052 43.0195 96.494 43.1418 96.3705 43.2863C96.247 43.4308 96.0898 43.5864 95.8989 43.7309C95.708 43.8754 95.4947 44.0088 95.2926 44.1311C95.0792 44.2534 94.9445 44.3201 94.8884 44.3534C94.3719 44.6536 93.7318 44.9871 92.9459 45.365C92.1599 45.7318 91.4862 46.0987 90.9135 46.4544C90.8574 46.51 90.7451 46.5767 90.5767 46.6322C90.4082 46.6878 90.2847 46.7545 90.1949 46.8101C90.5542 47.6105 90.8125 48.3108 90.9584 48.8888C91.1044 49.4668 91.1605 50.0226 91.1156 50.5673C91.0707 51.1009 90.9584 51.6456 90.7788 52.2014C90.5991 52.7572 90.3521 53.3908 90.0602 54.1022C89.6335 54.7914 89.2068 55.4473 88.7689 56.0698C88.331 56.6923 87.8482 57.2592 87.298 57.7706C86.759 58.2819 86.1639 58.6821 85.5351 58.9711C84.9063 59.2712 84.2102 59.4157 83.4579 59.4157C83.0312 59.4157 82.627 59.3602 82.234 59.2601C81.841 59.1601 81.5154 58.9377 81.2459 58.6154C80.5497 57.8706 80.168 57.0591 80.0781 56.181C79.9883 55.3028 80.0669 54.4357 80.3027 53.5687C80.4824 53.0351 80.7069 52.546 80.9764 52.0902C81.6389 50.9564 82.3687 50.0004 83.1659 49.2112C83.9744 48.433 84.8053 47.6771 85.6811 46.9657ZM87.2194 48.9777C86.8825 49.3112 86.4334 49.7781 85.8608 50.3895C85.2881 51.0009 84.7604 51.6678 84.2551 52.3793C83.761 53.0907 83.3568 53.8021 83.0424 54.5024C82.728 55.2027 82.6494 55.803 82.7954 56.3143C83.4017 56.0476 84.0193 55.6029 84.6481 54.9915C85.2769 54.3801 85.8383 53.7132 86.3211 52.9795C86.8039 52.2459 87.1408 51.5233 87.3317 50.8119C87.5226 50.0893 87.4889 49.478 87.2194 48.9777Z" fill="#FF5196" stroke="white" stroke-miterlimit="10"/>
</g>
<g id="Group_4">
<path id="Vector_25" d="M78.361 65.0625C64.3143 65.0625 52.8838 53.7463 52.8838 39.8401C52.8838 25.9339 64.3143 14.6177 78.361 14.6177C92.4077 14.6177 103.838 25.9339 103.838 39.8401C103.838 53.7463 92.4077 65.0625 78.361 65.0625ZM78.361 15.7293C64.9318 15.7293 54.0066 26.5452 54.0066 39.8401C54.0066 53.1349 64.9318 63.9509 78.361 63.9509C91.7901 63.9509 102.715 53.1349 102.715 39.8401C102.715 26.5452 91.7901 15.7293 78.361 15.7293Z" fill="#263238"/>
</g>
</g>
</g>
</svg>
